<svg width="95" height="98" viewBox="0 0 95 98" fill="none" xmlns="http://www.w3.org/2000/svg">
<path d="M77.915 45.6091C78.5976 48.6958 78.8888 51.9227 78.6128 55.1781C78.3197 58.4334 77.4334 61.6788 76.0591 64.6351C74.6608 67.5692 72.7897 70.175 70.6266 72.3353C68.4674 74.5045 66.0674 76.3044 63.5106 77.6996C60.956 79.0999 58.2737 80.166 55.5043 80.8546C52.7248 81.5382 49.9895 81.8554 47.2711 81.8976C41.8425 81.9568 36.6814 80.9149 31.8988 79.2697C31.5585 79.1473 31.2785 78.9696 31.0264 78.7698C29.5919 78.563 28.4195 78.1424 28.2198 77.521C25.632 61.9942 22.212 46.6301 19.6161 30.4511C16.7793 25.7282 14.9434 21.3375 16.9421 20.3855C20.1012 18.8949 23.2411 17.9131 26.3368 17.2135C29.4286 16.5539 32.479 16.2317 35.4995 16.1142C41.5324 15.9908 47.467 16.7627 53.3353 18.7582C56.2674 19.7931 59.1774 21.0821 61.9961 22.8959C64.7576 24.6997 67.1978 26.8217 69.3198 29.1546C71.446 31.4884 73.1986 34.0873 74.6609 36.8297C76.1244 39.5701 77.2374 42.5141 77.915 45.6091ZM61.6017 58.732C61.9199 57.3768 62.0299 56.0439 61.9044 54.6628C61.7588 53.2815 61.3613 51.8773 60.7891 50.5109C60.226 49.1418 59.436 47.8086 58.4714 46.6061C57.5148 45.4066 56.4478 44.2822 55.2493 43.3829C54.0558 42.4815 52.801 41.7587 51.5533 41.2397C50.3407 40.7549 48.8862 40.4036 47.3744 40.1497C46.3516 39.976 45.2665 39.9037 44.1702 39.8766C42.236 50.0967 40.5115 60.5884 38.5289 71.0707C41.2231 71.2534 43.8671 71.1519 46.3646 70.7123C50.2081 70.0317 53.5629 68.5773 56.289 66.388C59.0104 64.2268 60.9221 61.4403 61.6017 58.732Z" fill="#FFC93C"/>
</svg>
