<svg width="491" height="271" viewBox="0 0 491 271" fill="none" xmlns="http://www.w3.org/2000/svg">
<g clip-path="url(#clip0_2415_7332)">
<rect y="0.115234" width="491" height="269.954" rx="12" fill="#686868"/>
<path d="M92.3558 123.615C55.1526 98.1637 33.3152 98.2992 -7.5 123.615V301.615H497V123.615C483.239 113.574 476.005 114.295 463.715 123.615L429.777 149.615C406.471 167.742 392.65 167.489 366.47 149.615L317.521 112.115C292.435 96.2409 279.114 96.6474 256.824 112.115L214.402 144.615C179.565 171.664 159.012 173.772 119.767 144.615L92.3558 123.615Z" fill="#FFF532" stroke="white" stroke-width="3"/>
<path d="M-7.5 129.615C33.3152 104.299 55.1526 104.164 92.3558 129.615L119.767 150.615C159.012 179.772 179.565 177.664 214.402 150.615L256.824 118.115C279.114 102.647 292.435 102.241 317.521 118.115L366.47 155.615C392.65 173.489 406.471 173.742 429.777 155.615L463.715 129.615C476.005 120.295 483.239 119.574 497 129.615" stroke="#D9D9D9" stroke-width="4"/>
<path d="M33.14 31.1552V39.7952C33.14 40.7419 33.3867 41.4686 33.88 41.9752C34.3733 42.4686 35.0667 42.7152 35.96 42.7152C36.8667 42.7152 37.5667 42.4686 38.06 41.9752C38.5533 41.4686 38.8 40.7419 38.8 39.7952V31.1552H41.62V39.7752C41.62 40.9619 41.36 41.9686 40.84 42.7952C40.3333 43.6086 39.6467 44.2219 38.78 44.6352C37.9267 45.0486 36.9733 45.2552 35.92 45.2552C34.88 45.2552 33.9333 45.0486 33.08 44.6352C32.24 44.2219 31.5733 43.6086 31.08 42.7952C30.5867 41.9686 30.34 40.9619 30.34 39.7752V31.1552H33.14ZM48.5653 45.2952C47.6586 45.2952 46.8453 45.1352 46.1253 44.8152C45.4053 44.4819 44.832 44.0352 44.4053 43.4752C43.992 42.9152 43.7653 42.2952 43.7253 41.6152H46.5453C46.5986 42.0419 46.8053 42.3952 47.1653 42.6752C47.5386 42.9552 47.9986 43.0952 48.5453 43.0952C49.0786 43.0952 49.492 42.9886 49.7853 42.7752C50.092 42.5619 50.2453 42.2886 50.2453 41.9552C50.2453 41.5952 50.0586 41.3286 49.6853 41.1552C49.3253 40.9686 48.7453 40.7686 47.9453 40.5552C47.1186 40.3552 46.4386 40.1486 45.9053 39.9352C45.3853 39.7219 44.932 39.3952 44.5453 38.9552C44.172 38.5152 43.9853 37.9219 43.9853 37.1752C43.9853 36.5619 44.1586 36.0019 44.5053 35.4952C44.8653 34.9886 45.372 34.5886 46.0253 34.2952C46.692 34.0019 47.472 33.8552 48.3653 33.8552C49.6853 33.8552 50.7386 34.1886 51.5253 34.8552C52.312 35.5086 52.7453 36.3952 52.8253 37.5152H50.1453C50.1053 37.0752 49.9186 36.7286 49.5853 36.4752C49.2653 36.2086 48.832 36.0752 48.2853 36.0752C47.7786 36.0752 47.3853 36.1686 47.1053 36.3552C46.8386 36.5419 46.7053 36.8019 46.7053 37.1352C46.7053 37.5086 46.892 37.7952 47.2653 37.9952C47.6386 38.1819 48.2186 38.3752 49.0053 38.5752C49.8053 38.7752 50.4653 38.9819 50.9853 39.1952C51.5053 39.4086 51.952 39.7419 52.3253 40.1952C52.712 40.6352 52.912 41.2219 52.9253 41.9552C52.9253 42.5952 52.7453 43.1686 52.3853 43.6752C52.0386 44.1819 51.532 44.5819 50.8653 44.8752C50.212 45.1552 49.4453 45.2952 48.5653 45.2952ZM65.5238 39.3352C65.5238 39.7352 65.4971 40.0952 65.4438 40.4152H57.3438C57.4104 41.2152 57.6904 41.8419 58.1838 42.2952C58.6771 42.7486 59.2838 42.9752 60.0038 42.9752C61.0438 42.9752 61.7838 42.5286 62.2238 41.6352H65.2438C64.9238 42.7019 64.3104 43.5819 63.4038 44.2752C62.4971 44.9552 61.3838 45.2952 60.0638 45.2952C58.9971 45.2952 58.0371 45.0619 57.1838 44.5952C56.3438 44.1152 55.6838 43.4419 55.2038 42.5752C54.7371 41.7086 54.5037 40.7086 54.5037 39.5752C54.5037 38.4286 54.7371 37.4219 55.2038 36.5552C55.6704 35.6886 56.3238 35.0219 57.1638 34.5552C58.0038 34.0886 58.9704 33.8552 60.0638 33.8552C61.1171 33.8552 62.0571 34.0819 62.8838 34.5352C63.7238 34.9886 64.3704 35.6352 64.8238 36.4752C65.2904 37.3019 65.5238 38.2552 65.5238 39.3352ZM62.6238 38.5352C62.6104 37.8152 62.3504 37.2419 61.8438 36.8152C61.3371 36.3752 60.7171 36.1552 59.9838 36.1552C59.2904 36.1552 58.7038 36.3686 58.2238 36.7952C57.7571 37.2086 57.4704 37.7886 57.3638 38.5352H62.6238ZM70.3675 35.7552C70.7275 35.1686 71.1942 34.7086 71.7675 34.3752C72.3542 34.0419 73.0208 33.8752 73.7675 33.8752V36.8152H73.0275C72.1475 36.8152 71.4808 37.0219 71.0275 37.4352C70.5875 37.8486 70.3675 38.5686 70.3675 39.5952V45.1152H67.5675V34.0352H70.3675V35.7552ZM79.8934 45.2952C78.9868 45.2952 78.1734 45.1352 77.4534 44.8152C76.7334 44.4819 76.1601 44.0352 75.7334 43.4752C75.3201 42.9152 75.0934 42.2952 75.0534 41.6152H77.8734C77.9268 42.0419 78.1334 42.3952 78.4934 42.6752C78.8668 42.9552 79.3268 43.0952 79.8734 43.0952C80.4068 43.0952 80.8201 42.9886 81.1134 42.7752C81.4201 42.5619 81.5734 42.2886 81.5734 41.9552C81.5734 41.5952 81.3868 41.3286 81.0134 41.1552C80.6534 40.9686 80.0734 40.7686 79.2734 40.5552C78.4468 40.3552 77.7668 40.1486 77.2334 39.9352C76.7134 39.7219 76.2601 39.3952 75.8734 38.9552C75.5001 38.5152 75.3134 37.9219 75.3134 37.1752C75.3134 36.5619 75.4868 36.0019 75.8334 35.4952C76.1934 34.9886 76.7001 34.5886 77.3534 34.2952C78.0201 34.0019 78.8001 33.8552 79.6934 33.8552C81.0134 33.8552 82.0668 34.1886 82.8534 34.8552C83.6401 35.5086 84.0734 36.3952 84.1534 37.5152H81.4734C81.4334 37.0752 81.2468 36.7286 80.9134 36.4752C80.5934 36.2086 80.1601 36.0752 79.6134 36.0752C79.1068 36.0752 78.7134 36.1686 78.4334 36.3552C78.1668 36.5419 78.0334 36.8019 78.0334 37.1352C78.0334 37.5086 78.2201 37.7952 78.5934 37.9952C78.9668 38.1819 79.5468 38.3752 80.3334 38.5752C81.1334 38.7752 81.7934 38.9819 82.3134 39.1952C82.8334 39.4086 83.2801 39.7419 83.6534 40.1952C84.0401 40.6352 84.2401 41.2219 84.2534 41.9552C84.2534 42.5952 84.0734 43.1686 83.7134 43.6752C83.3668 44.1819 82.8601 44.5819 82.1934 44.8752C81.5401 45.1552 80.7734 45.2952 79.8934 45.2952Z" fill="white"/>
</g>
<defs>
<clipPath id="clip0_2415_7332">
<rect y="0.115234" width="491" height="269.954" rx="12" fill="white"/>
</clipPath>
</defs>
</svg>
