<svg width="165" height="46" viewBox="0 0 165 46" fill="none" xmlns="http://www.w3.org/2000/svg">
<path d="M0 0H165V46H0L44 22.4773L0 0Z" fill="#FEF200"/>
<path d="M53.1992 32H50.875V17.7227H58.9414V19.6953H53.1992V24.1484H58.5703V26.1113H53.1992V32ZM65.2113 20.9844C66.1749 20.9844 67.0017 21.1829 67.6918 21.5801C68.3819 21.9772 68.9125 22.5404 69.2836 23.2695C69.6547 23.9987 69.8402 24.8711 69.8402 25.8867V27.1172H62.6234C62.6495 28.1654 62.9294 28.9727 63.4633 29.5391C64.0036 30.1055 64.7589 30.3887 65.7289 30.3887C66.419 30.3887 67.0375 30.3236 67.5844 30.1934C68.1378 30.0566 68.7074 29.8581 69.2934 29.5977V31.4629C68.753 31.7168 68.2029 31.9023 67.643 32.0195C67.0831 32.1367 66.4125 32.1953 65.6313 32.1953C64.5701 32.1953 63.6358 31.9902 62.8285 31.5801C62.0277 31.1634 61.3995 30.5449 60.9438 29.7246C60.4945 28.9043 60.2699 27.8854 60.2699 26.668C60.2699 25.457 60.475 24.4284 60.8852 23.582C61.2953 22.7357 61.8715 22.0911 62.6137 21.6484C63.3559 21.2057 64.2217 20.9844 65.2113 20.9844ZM65.2113 22.7129C64.4887 22.7129 63.9027 22.9473 63.4535 23.416C63.0108 23.8848 62.7504 24.5716 62.6723 25.4766H67.5941C67.5876 24.9362 67.4965 24.4577 67.3207 24.041C67.1514 23.6243 66.891 23.2988 66.5395 23.0645C66.1944 22.8301 65.7517 22.7129 65.2113 22.7129ZM76.2664 20.9844C77.6336 20.9844 78.6655 21.2871 79.3621 21.8926C80.0652 22.498 80.4168 23.4421 80.4168 24.7246V32H78.7859L78.3465 30.4668H78.2684C77.9624 30.8574 77.6466 31.1797 77.3211 31.4336C76.9956 31.6875 76.618 31.8763 76.1883 32C75.7651 32.1302 75.2475 32.1953 74.6355 32.1953C73.991 32.1953 73.4148 32.0781 72.907 31.8438C72.3992 31.6029 71.9988 31.2383 71.7059 30.75C71.4129 30.2617 71.2664 29.6432 71.2664 28.8945C71.2664 27.7812 71.6798 26.9447 72.5066 26.3848C73.34 25.8249 74.5965 25.5156 76.2762 25.457L78.1512 25.3887V24.8223C78.1512 24.0736 77.9754 23.5397 77.6238 23.2207C77.2788 22.9017 76.7905 22.7422 76.159 22.7422C75.6186 22.7422 75.0945 22.8203 74.5867 22.9766C74.0789 23.1328 73.5841 23.3249 73.1023 23.5527L72.3602 21.9316C72.8875 21.6517 73.4865 21.4238 74.157 21.248C74.8341 21.0723 75.5372 20.9844 76.2664 20.9844ZM78.1414 26.834L76.7449 26.8828C75.5991 26.9219 74.7951 27.1172 74.3328 27.4688C73.8706 27.8203 73.6395 28.3021 73.6395 28.9141C73.6395 29.4479 73.799 29.8385 74.118 30.0859C74.437 30.3268 74.8569 30.4473 75.3777 30.4473C76.172 30.4473 76.8296 30.2227 77.3504 29.7734C77.8777 29.3177 78.1414 28.6504 78.1414 27.7715V26.834ZM87.2531 30.3398C87.5526 30.3398 87.8488 30.3138 88.1418 30.2617C88.4348 30.2031 88.7017 30.1348 88.9426 30.0566V31.7949C88.6887 31.9056 88.3599 32 87.9562 32.0781C87.5526 32.1562 87.1327 32.1953 86.6965 32.1953C86.0845 32.1953 85.5344 32.0944 85.0461 31.8926C84.5578 31.6842 84.1704 31.3294 83.884 30.8281C83.5975 30.3268 83.4543 29.6335 83.4543 28.748V22.9375H81.9797V21.9121L83.5617 21.1016L84.3137 18.7871H85.759V21.1895H88.8547V22.9375H85.759V28.7188C85.759 29.2656 85.8957 29.6725 86.1691 29.9395C86.4426 30.2064 86.8039 30.3398 87.2531 30.3398ZM100.164 21.1895V32H98.357L98.0445 30.5449H97.9176C97.6897 30.916 97.4 31.2253 97.0484 31.4727C96.6969 31.7135 96.3063 31.8926 95.8766 32.0098C95.4469 32.1335 94.9944 32.1953 94.5191 32.1953C93.7053 32.1953 93.0087 32.0586 92.4293 31.7852C91.8564 31.5052 91.4169 31.0755 91.1109 30.4961C90.8049 29.9167 90.652 29.168 90.652 28.25V21.1895H92.9566V27.8203C92.9566 28.6602 93.1259 29.2884 93.4645 29.7051C93.8095 30.1217 94.3434 30.3301 95.066 30.3301C95.7626 30.3301 96.316 30.1868 96.7262 29.9004C97.1363 29.6139 97.426 29.1908 97.5953 28.6309C97.7711 28.071 97.859 27.3841 97.859 26.5703V21.1895H100.164ZM108.533 20.9844C108.715 20.9844 108.914 20.9941 109.129 21.0137C109.344 21.0332 109.529 21.0592 109.686 21.0918L109.471 23.2402C109.334 23.2012 109.165 23.1719 108.963 23.1523C108.768 23.1328 108.592 23.123 108.436 23.123C108.025 23.123 107.635 23.1914 107.264 23.3281C106.893 23.4583 106.564 23.6602 106.277 23.9336C105.991 24.2005 105.766 24.5358 105.604 24.9395C105.441 25.3431 105.359 25.8118 105.359 26.3457V32H103.055V21.1895H104.852L105.164 23.0938H105.271C105.486 22.7096 105.753 22.3581 106.072 22.0391C106.391 21.7201 106.756 21.4661 107.166 21.2773C107.583 21.082 108.038 20.9844 108.533 20.9844ZM115.594 20.9844C116.558 20.9844 117.385 21.1829 118.075 21.5801C118.765 21.9772 119.295 22.5404 119.666 23.2695C120.037 23.9987 120.223 24.8711 120.223 25.8867V27.1172H113.006C113.032 28.1654 113.312 28.9727 113.846 29.5391C114.386 30.1055 115.142 30.3887 116.112 30.3887C116.802 30.3887 117.42 30.3236 117.967 30.1934C118.521 30.0566 119.09 29.8581 119.676 29.5977V31.4629C119.136 31.7168 118.586 31.9023 118.026 32.0195C117.466 32.1367 116.795 32.1953 116.014 32.1953C114.953 32.1953 114.019 31.9902 113.211 31.5801C112.411 31.1634 111.782 30.5449 111.327 29.7246C110.877 28.9043 110.653 27.8854 110.653 26.668C110.653 25.457 110.858 24.4284 111.268 23.582C111.678 22.7357 112.254 22.0911 112.996 21.6484C113.739 21.2057 114.605 20.9844 115.594 20.9844ZM115.594 22.7129C114.871 22.7129 114.286 22.9473 113.836 23.416C113.394 23.8848 113.133 24.5716 113.055 25.4766H117.977C117.97 24.9362 117.879 24.4577 117.704 24.041C117.534 23.6243 117.274 23.2988 116.922 23.0645C116.577 22.8301 116.135 22.7129 115.594 22.7129ZM126.044 32.1953C124.755 32.1953 123.72 31.7266 122.938 30.7891C122.164 29.8451 121.776 28.4551 121.776 26.6191C121.776 24.7637 122.17 23.3607 122.958 22.4102C123.752 21.4596 124.797 20.9844 126.093 20.9844C126.639 20.9844 127.118 21.0592 127.528 21.209C127.938 21.3522 128.29 21.5475 128.583 21.7949C128.882 22.0423 129.136 22.319 129.345 22.625H129.452C129.419 22.4232 129.38 22.1335 129.335 21.7559C129.296 21.3717 129.276 21.0169 129.276 20.6914V16.8047H131.581V32H129.784L129.374 30.5254H129.276C129.081 30.8379 128.833 31.1211 128.534 31.375C128.241 31.6224 127.889 31.821 127.479 31.9707C127.076 32.1204 126.597 32.1953 126.044 32.1953ZM126.688 30.3301C127.671 30.3301 128.365 30.0469 128.768 29.4805C129.172 28.9141 129.38 28.0645 129.393 26.9316V26.6289C129.393 25.418 129.198 24.4902 128.807 23.8457C128.417 23.1947 127.704 22.8691 126.669 22.8691C125.842 22.8691 125.21 23.2044 124.774 23.875C124.345 24.5391 124.13 25.4668 124.13 26.6582C124.13 27.8496 124.345 28.7611 124.774 29.3926C125.21 30.0176 125.848 30.3301 126.688 30.3301Z" fill="black"/>
</svg>
