<svg width="216" height="100" viewBox="0 0 216 100" fill="none" xmlns="http://www.w3.org/2000/svg">
<rect y="3" width="66" height="31" fill="#FEF200"/>
<rect y="36" width="139" height="31" fill="white"/>
<rect y="36" width="139" height="31" fill="white"/>
<rect y="36" width="139" height="31" fill="white"/>
<rect y="69" width="148" height="31" fill="white"/>
<rect y="69" width="148" height="31" fill="black"/>
<path d="M12.9785 27H7.57812V11.4277H2.69727V7.01172H17.8457V11.4277H12.9785V27ZM37.274 27H31.8462V18.8516H25.5709V27H20.1431V7.01172H25.5709V14.4219H31.8462V7.01172H37.274V27ZM52.9152 27H41.048V7.01172H52.9152V11.3457H46.4484V14.4902H52.4366V18.8242H46.4484V22.5977H52.9152V27Z" fill="black"/>
<path d="M23.1914 59H16.1094L8.80859 44.918H8.68555C8.73112 45.3464 8.77214 45.8613 8.80859 46.4629C8.84505 47.0645 8.87695 47.6797 8.9043 48.3086C8.93164 48.9284 8.94531 49.4889 8.94531 49.9902V59H4.16016V39.0117H11.2148L18.4883 52.9023H18.5703C18.543 52.4648 18.5156 51.959 18.4883 51.3848C18.4609 50.8014 18.4336 50.2135 18.4062 49.6211C18.388 49.0286 18.3789 48.5046 18.3789 48.0488V39.0117H23.1914V59ZM39.2154 59L38.231 55.2539H31.7369L30.7252 59H24.7916L31.313 38.9297H38.5181L45.1216 59H39.2154ZM37.1099 50.8242L36.2486 47.543C36.1574 47.1875 36.0253 46.6816 35.8521 46.0254C35.6789 45.36 35.5058 44.6764 35.3326 43.9746C35.1685 43.2637 35.0409 42.6803 34.9498 42.2246C34.8677 42.6803 34.7492 43.2454 34.5943 43.9199C34.4485 44.5853 34.2935 45.2461 34.1295 45.9023C33.9745 46.5586 33.8378 47.1055 33.7193 47.543L32.858 50.8242H37.1099ZM46.7355 59V39.0117H52.1632V59H46.7355ZM62.486 39.0117C64.2998 39.0117 65.8083 39.235 67.0114 39.6816C68.2145 40.1191 69.1169 40.7754 69.7184 41.6504C70.3291 42.5254 70.6345 43.6146 70.6345 44.918C70.6345 45.7292 70.4977 46.4674 70.2243 47.1328C69.9509 47.7982 69.5589 48.3952 69.0485 48.9238C68.5472 49.4434 67.9457 49.8991 67.2438 50.291L73.068 59H66.943L62.7048 51.7266H61.3376V59H55.9372V39.0117H62.486ZM62.404 43.0996H61.3376V47.666H62.3493C63.1787 47.666 63.8578 47.4837 64.3864 47.1191C64.9151 46.7546 65.1794 46.1029 65.1794 45.1641C65.1794 44.5169 64.9606 44.0111 64.5231 43.6465C64.0856 43.2819 63.3792 43.0996 62.404 43.0996ZM93.0295 48.9785C93.0295 50.5189 92.8427 51.9225 92.469 53.1895C92.1044 54.4473 91.5302 55.5319 90.7463 56.4434C89.9625 57.3548 88.9553 58.0566 87.7248 58.5488C86.4944 59.0319 85.0224 59.2734 83.3088 59.2734C81.6317 59.2734 80.178 59.0319 78.9475 58.5488C77.7261 58.0566 76.719 57.3594 75.926 56.457C75.133 55.5456 74.5452 54.4564 74.1623 53.1895C73.7795 51.9225 73.5881 50.5098 73.5881 48.9512C73.5881 46.873 73.9299 45.0684 74.6135 43.5371C75.3062 41.9967 76.3726 40.8073 77.8127 39.9688C79.2528 39.1211 81.094 38.6973 83.3362 38.6973C85.6148 38.6973 87.4651 39.1211 88.887 39.9688C90.3179 40.8164 91.3661 42.0104 92.0315 43.5508C92.6969 45.0911 93.0295 46.9004 93.0295 48.9785ZM79.2756 48.9785C79.2756 50.1816 79.4123 51.2161 79.6858 52.082C79.9592 52.9479 80.3922 53.6133 80.9846 54.0781C81.5771 54.543 82.3518 54.7754 83.3088 54.7754C84.3023 54.7754 85.0907 54.543 85.6741 54.0781C86.2665 53.6133 86.6903 52.9479 86.9455 52.082C87.2099 51.2161 87.342 50.1816 87.342 48.9785C87.342 47.1738 87.0413 45.7474 86.4397 44.6992C85.8381 43.651 84.8036 43.127 83.3362 43.127C82.3609 43.127 81.5725 43.3639 80.9709 43.8379C80.3785 44.3118 79.9455 44.9863 79.6721 45.8613C79.4078 46.7363 79.2756 47.7754 79.2756 48.9785ZM96.0789 39.0117H103.052C105.941 39.0117 108.001 39.4401 109.231 40.2969C110.462 41.1536 111.077 42.3841 111.077 43.9883C111.077 44.8633 110.917 45.6061 110.598 46.2168C110.289 46.8275 109.892 47.3105 109.409 47.666C108.935 48.0215 108.447 48.263 107.946 48.3906V48.5273C108.493 48.6641 109.035 48.8919 109.573 49.2109C110.12 49.5208 110.571 49.9902 110.927 50.6191C111.291 51.2389 111.473 52.082 111.473 53.1484C111.473 54.3607 111.164 55.4043 110.544 56.2793C109.933 57.1543 109.058 57.8288 107.919 58.3027C106.779 58.7676 105.426 59 103.858 59H96.0789V39.0117ZM101.479 46.6816H103.106C103.999 46.6816 104.628 46.4993 104.993 46.1348C105.358 45.7611 105.54 45.3099 105.54 44.7812C105.54 44.2344 105.33 43.8197 104.911 43.5371C104.501 43.2454 103.863 43.0996 102.997 43.0996H101.479V46.6816ZM101.479 50.6328V54.8301H103.38C104.318 54.8301 104.975 54.6296 105.348 54.2285C105.722 53.8184 105.909 53.3079 105.909 52.6973C105.909 52.3418 105.827 52.0091 105.663 51.6992C105.508 51.3802 105.239 51.125 104.856 50.9336C104.473 50.7331 103.945 50.6328 103.27 50.6328H101.479ZM114.386 59V39.0117H119.814V59H114.386Z" fill="black"/>
<path d="M4.16016 93V73.0117H9.56055V88.6387H17.2578V93H4.16016ZM19.897 93V73.0117H25.3248V93H19.897ZM42.1691 86.9297C42.1691 88.0143 41.8956 89.0443 41.3487 90.0195C40.8019 90.9857 39.9497 91.7695 38.7921 92.3711C37.6437 92.9727 36.158 93.2734 34.3351 93.2734C33.4236 93.2734 32.6215 93.2324 31.9288 93.1504C31.2452 93.0684 30.6072 92.9362 30.0148 92.7539C29.4223 92.5625 28.8071 92.3164 28.1691 92.0156V87.2031C29.2537 87.75 30.3474 88.1693 31.4503 88.4609C32.5532 88.7435 33.5512 88.8848 34.4445 88.8848C34.9822 88.8848 35.4197 88.821 35.757 88.6934C36.1033 88.5658 36.3585 88.3926 36.5226 88.1738C36.6866 87.946 36.7687 87.6862 36.7687 87.3945C36.7687 87.0482 36.6456 86.7565 36.3995 86.5195C36.1626 86.2734 35.7797 86.0182 35.2511 85.7539C34.7224 85.4896 34.0252 85.1615 33.1593 84.7695C32.421 84.4232 31.7511 84.0677 31.1495 83.7031C30.5571 83.3385 30.0467 82.9238 29.6183 82.459C29.199 81.985 28.8754 81.4336 28.6476 80.8047C28.4197 80.1758 28.3058 79.4329 28.3058 78.5762C28.3058 77.291 28.6202 76.2155 29.2491 75.3496C29.8872 74.4746 30.7713 73.8184 31.9015 73.3809C33.0408 72.9434 34.3533 72.7246 35.839 72.7246C37.1424 72.7246 38.3136 72.8704 39.3527 73.1621C40.4008 73.4538 41.3396 73.7865 42.1691 74.1602L40.5148 78.3301C39.658 77.9382 38.8149 77.6283 37.9855 77.4004C37.156 77.1634 36.3859 77.0449 35.6749 77.0449C35.2101 77.0449 34.8273 77.1042 34.5265 77.2227C34.2348 77.332 34.0161 77.4824 33.8702 77.6738C33.7335 77.8652 33.6652 78.084 33.6652 78.3301C33.6652 78.64 33.7836 78.918 34.0206 79.1641C34.2667 79.4102 34.6723 79.679 35.2374 79.9707C35.8116 80.2533 36.5909 80.6224 37.5753 81.0781C38.5506 81.5156 39.38 81.9896 40.0636 82.5C40.7472 83.0013 41.2667 83.6074 41.6222 84.3184C41.9868 85.0202 42.1691 85.8906 42.1691 86.9297ZM53.5173 93H48.1169V77.4277H43.236V73.0117H58.3845V77.4277H53.5173V93ZM60.6819 93V73.0117H66.1096V93H60.6819ZM88.9148 93H81.8328L74.532 78.918H74.409C74.4546 79.3464 74.4956 79.8613 74.532 80.4629C74.5685 81.0645 74.6004 81.6797 74.6277 82.3086C74.6551 82.9284 74.6687 83.4889 74.6687 83.9902V93H69.8836V73.0117H76.9383L84.2117 86.9023H84.2937C84.2664 86.4648 84.2391 85.959 84.2117 85.3848C84.1844 84.8014 84.157 84.2135 84.1297 83.6211C84.1115 83.0286 84.1023 82.5046 84.1023 82.0488V73.0117H88.9148V93ZM100.701 81.2969H109.327V92.0703C108.298 92.4258 107.117 92.7174 105.786 92.9453C104.456 93.1641 103.061 93.2734 101.603 93.2734C99.6797 93.2734 97.9935 92.8997 96.5443 92.1523C95.0951 91.4049 93.9649 90.2702 93.1537 88.748C92.3425 87.2168 91.9369 85.2845 91.9369 82.9512C91.9369 80.8548 92.3379 79.0456 93.14 77.5234C93.9421 75.9922 95.1224 74.8118 96.681 73.9824C98.2487 73.1439 100.167 72.7246 102.437 72.7246C103.686 72.7246 104.87 72.8431 105.992 73.0801C107.113 73.3171 108.088 73.6178 108.917 73.9824L107.208 78.2207C106.488 77.8652 105.741 77.6009 104.966 77.4277C104.191 77.2454 103.357 77.1543 102.464 77.1543C101.27 77.1543 100.309 77.4232 99.5795 77.9609C98.8594 78.4987 98.3353 79.2188 98.0072 80.1211C97.6791 81.0143 97.515 82.0033 97.515 83.0879C97.515 84.3275 97.6882 85.3757 98.0345 86.2324C98.39 87.0801 98.905 87.7272 99.5795 88.1738C100.263 88.6113 101.088 88.8301 102.054 88.8301C102.373 88.8301 102.76 88.8073 103.216 88.7617C103.681 88.7161 104.032 88.6615 104.269 88.5977V85.4668H100.701V81.2969ZM125.912 86.9297C125.912 88.0143 125.639 89.0443 125.092 90.0195C124.545 90.9857 123.693 91.7695 122.535 92.3711C121.387 92.9727 119.901 93.2734 118.078 93.2734C117.167 93.2734 116.365 93.2324 115.672 93.1504C114.988 93.0684 114.35 92.9362 113.758 92.7539C113.165 92.5625 112.55 92.3164 111.912 92.0156V87.2031C112.997 87.75 114.09 88.1693 115.193 88.4609C116.296 88.7435 117.294 88.8848 118.187 88.8848C118.725 88.8848 119.163 88.821 119.5 88.6934C119.846 88.5658 120.101 88.3926 120.266 88.1738C120.43 87.946 120.512 87.6862 120.512 87.3945C120.512 87.0482 120.389 86.7565 120.143 86.5195C119.906 86.2734 119.523 86.0182 118.994 85.7539C118.465 85.4896 117.768 85.1615 116.902 84.7695C116.164 84.4232 115.494 84.0677 114.893 83.7031C114.3 83.3385 113.79 82.9238 113.361 82.459C112.942 81.985 112.618 81.4336 112.391 80.8047C112.163 80.1758 112.049 79.4329 112.049 78.5762C112.049 77.291 112.363 76.2155 112.992 75.3496C113.63 74.4746 114.514 73.8184 115.644 73.3809C116.784 72.9434 118.096 72.7246 119.582 72.7246C120.885 72.7246 122.057 72.8704 123.096 73.1621C124.144 73.4538 125.083 73.7865 125.912 74.1602L124.258 78.3301C123.401 77.9382 122.558 77.6283 121.728 77.4004C120.899 77.1634 120.129 77.0449 119.418 77.0449C118.953 77.0449 118.57 77.1042 118.269 77.2227C117.978 77.332 117.759 77.4824 117.613 77.6738C117.476 77.8652 117.408 78.084 117.408 78.3301C117.408 78.64 117.527 78.918 117.764 79.1641C118.01 79.4102 118.415 79.679 118.98 79.9707C119.555 80.2533 120.334 80.6224 121.318 81.0781C122.294 81.5156 123.123 81.9896 123.807 82.5C124.49 83.0013 125.01 83.6074 125.365 84.3184C125.73 85.0202 125.912 85.8906 125.912 86.9297Z" fill="white"/>
</svg>
