<svg width="491" height="266" viewBox="0 0 491 266" fill="none" xmlns="http://www.w3.org/2000/svg">
<g clip-path="url(#clip0_2418_7330)">
<rect y="0.0957031" width="491" height="265.162" rx="12" fill="#686868"/>
<path d="M92.3558 123.595C55.1526 98.1442 33.3152 98.2797 -7.5 123.595V301.595H497V123.595C483.239 113.555 476.005 114.276 463.715 123.595L429.777 149.595C406.471 167.723 392.65 167.469 366.47 149.595L317.521 112.095C292.435 96.2213 279.114 96.6279 256.824 112.095L214.402 144.595C179.565 171.644 159.012 173.752 119.767 144.595L92.3558 123.595Z" fill="#FFF532" stroke="white" stroke-width="3"/>
<path d="M-7.5 129.595C33.3152 104.28 55.1526 104.144 92.3558 129.595L119.767 150.595C159.012 179.752 179.565 177.644 214.402 150.595L256.824 118.095C279.114 102.628 292.435 102.221 317.521 118.095L366.47 155.595C392.65 173.469 406.471 173.723 429.777 155.595L463.715 129.595C476.005 120.276 483.239 119.555 497 129.595" stroke="#D9D9D9" stroke-width="4"/>
<path d="M45.6 31.1357V45.0957H42.8V36.0157L39.06 45.0957H36.94L33.18 36.0157V45.0957H30.38V31.1357H33.56L38 41.5157L42.44 31.1357H45.6ZM53.2883 45.2757C52.2216 45.2757 51.2616 45.0424 50.4083 44.5757C49.5549 44.0957 48.8816 43.4224 48.3883 42.5557C47.9083 41.689 47.6683 40.689 47.6683 39.5557C47.6683 38.4224 47.9149 37.4224 48.4083 36.5557C48.9149 35.689 49.6016 35.0224 50.4683 34.5557C51.3349 34.0757 52.3016 33.8357 53.3683 33.8357C54.4349 33.8357 55.4016 34.0757 56.2683 34.5557C57.1349 35.0224 57.8149 35.689 58.3083 36.5557C58.8149 37.4224 59.0683 38.4224 59.0683 39.5557C59.0683 40.689 58.8083 41.689 58.2883 42.5557C57.7816 43.4224 57.0883 44.0957 56.2083 44.5757C55.3416 45.0424 54.3683 45.2757 53.2883 45.2757ZM53.2883 42.8357C53.7949 42.8357 54.2683 42.7157 54.7083 42.4757C55.1616 42.2224 55.5216 41.849 55.7883 41.3557C56.0549 40.8624 56.1883 40.2624 56.1883 39.5557C56.1883 38.5024 55.9083 37.6957 55.3483 37.1357C54.8016 36.5624 54.1283 36.2757 53.3283 36.2757C52.5283 36.2757 51.8549 36.5624 51.3083 37.1357C50.7749 37.6957 50.5083 38.5024 50.5083 39.5557C50.5083 40.609 50.7683 41.4224 51.2883 41.9957C51.8216 42.5557 52.4883 42.8357 53.2883 42.8357ZM67.2622 33.8557C68.5822 33.8557 69.6489 34.2757 70.4622 35.1157C71.2755 35.9424 71.6822 37.1024 71.6822 38.5957V45.0957H68.8822V38.9757C68.8822 38.0957 68.6622 37.4224 68.2222 36.9557C67.7822 36.4757 67.1822 36.2357 66.4222 36.2357C65.6489 36.2357 65.0355 36.4757 64.5822 36.9557C64.1422 37.4224 63.9222 38.0957 63.9222 38.9757V45.0957H61.1222V34.0157H63.9222V35.3957C64.2955 34.9157 64.7689 34.5424 65.3422 34.2757C65.9289 33.9957 66.5689 33.8557 67.2622 33.8557ZM84.6448 39.3157C84.6448 39.7157 84.6182 40.0757 84.5648 40.3957H76.4648C76.5315 41.1957 76.8115 41.8224 77.3048 42.2757C77.7982 42.729 78.4048 42.9557 79.1248 42.9557C80.1648 42.9557 80.9048 42.509 81.3448 41.6157H84.3648C84.0448 42.6824 83.4315 43.5624 82.5248 44.2557C81.6182 44.9357 80.5048 45.2757 79.1848 45.2757C78.1182 45.2757 77.1582 45.0424 76.3048 44.5757C75.4648 44.0957 74.8048 43.4224 74.3248 42.5557C73.8582 41.689 73.6248 40.689 73.6248 39.5557C73.6248 38.409 73.8582 37.4024 74.3248 36.5357C74.7915 35.669 75.4448 35.0024 76.2848 34.5357C77.1248 34.069 78.0915 33.8357 79.1848 33.8357C80.2382 33.8357 81.1782 34.0624 82.0048 34.5157C82.8448 34.969 83.4915 35.6157 83.9448 36.4557C84.4115 37.2824 84.6448 38.2357 84.6448 39.3157ZM81.7448 38.5157C81.7315 37.7957 81.4715 37.2224 80.9648 36.7957C80.4582 36.3557 79.8382 36.1357 79.1048 36.1357C78.4115 36.1357 77.8248 36.349 77.3448 36.7757C76.8782 37.189 76.5915 37.769 76.4848 38.5157H81.7448ZM97.2886 34.0157L90.4286 50.3357H87.4486L89.8486 44.8157L85.4086 34.0157H88.5486L91.4086 41.7557L94.3086 34.0157H97.2886Z" fill="white"/>
</g>
<defs>
<clipPath id="clip0_2418_7330">
<rect y="0.0957031" width="491" height="265.162" rx="12" fill="white"/>
</clipPath>
</defs>
</svg>
